<svg width="24" height="24" viewBox="0 0 24 24" fill="none" xmlns="http://www.w3.org/2000/svg">
<rect x="6.04211" y="6.02087" width="4.94406" height="3.88461" rx="1" fill="white"/>
<rect x="13.105" y="6.02087" width="4.59091" height="3.88461" rx="1" fill="white"/>
<rect x="3" y="12" width="6" height="4" rx="1" fill="white"/>
<rect y="18" width="7" height="4" rx="1" fill="white"/>
<rect x="17.0001" y="18" width="7" height="4" rx="1" fill="white"/>
<rect x="15" y="12" width="6" height="4" rx="1" fill="white"/>
<rect x="9.00018" width="6" height="4" rx="1" fill="white"/>
<path d="M11.5311 16.2673C11.6922 15.8319 12.3079 15.8319 12.469 16.2673L13.0006 17.704C13.0513 17.8409 13.1592 17.9488 13.296 17.9994L14.7328 18.5311C15.1681 18.6922 15.1681 19.3078 14.7328 19.4689L13.296 20.0006C13.1592 20.0512 13.0513 20.1591 13.0006 20.296L12.469 21.7327C12.3079 22.1681 11.6922 22.1681 11.5311 21.7327L10.9995 20.296C10.9488 20.1591 10.8409 20.0512 10.7041 20.0006L9.26731 19.4689C8.832 19.3078 8.832 18.6922 9.26731 18.5311L10.7041 17.9994C10.8409 17.9488 10.9488 17.8409 10.9995 17.704L11.5311 16.2673Z" fill="#F2994A"/>
</svg>
